<svg id="svg" xmlns="http://www.w3.org/2000/svg" xmlns:xlink="http://www.w3.org/1999/xlink" width="400" height="126.04166666666666" viewBox="0, 0, 400,126.04166666666666" version="1.1"><g id="svgg"><path id="path0" d="M64.583 24.955 C 64.080 25.216,63.686 25.528,62.000 27.000 C 61.496 27.441,60.408 28.349,59.583 29.019 C 58.758 29.690,57.289 30.916,56.319 31.744 C 52.946 34.623,46.571 39.942,43.864 42.136 C 43.561 42.382,43.026 42.846,42.677 43.167 C 41.883 43.896,41.275 44.401,40.165 45.250 C 38.747 46.335,37.967 46.984,37.083 47.810 C 36.294 48.548,35.548 49.158,34.499 49.921 C 34.243 50.107,33.417 50.820,32.663 51.505 C 31.909 52.190,31.123 52.862,30.916 53.000 C 30.572 53.228,29.685 53.969,23.927 58.833 C 22.896 59.704,21.802 60.604,21.496 60.833 C 21.190 61.063,20.596 61.538,20.178 61.891 C 19.759 62.244,19.129 62.769,18.778 63.058 C 18.427 63.347,17.887 63.808,17.577 64.083 C 16.831 64.747,16.301 65.183,14.982 66.219 C 9.474 70.542,8.489 71.661,9.055 72.957 C 9.206 73.301,9.406 73.946,9.502 74.389 C 9.597 74.833,9.819 75.479,9.996 75.825 C 10.173 76.172,10.405 76.822,10.513 77.269 C 10.690 78.005,11.747 79.841,11.986 79.828 C 12.161 79.818,13.272 78.913,16.507 76.142 C 17.860 74.983,19.084 73.970,19.226 73.890 C 19.368 73.811,20.136 73.146,20.932 72.414 C 21.728 71.682,22.540 70.971,22.736 70.833 C 22.932 70.696,23.271 70.433,23.488 70.250 C 23.706 70.067,24.491 69.409,25.233 68.789 C 25.976 68.168,26.861 67.418,27.199 67.122 C 27.538 66.826,28.063 66.382,28.366 66.135 C 29.427 65.272,35.092 60.483,36.000 59.683 C 36.504 59.238,37.404 58.490,38.000 58.019 C 38.596 57.549,39.533 56.762,40.083 56.271 C 40.633 55.779,41.646 54.913,42.333 54.346 C 43.021 53.780,44.178 52.814,44.904 52.200 C 46.115 51.175,48.961 48.785,50.583 47.428 C 50.950 47.121,52.646 45.681,54.351 44.227 C 56.057 42.773,57.743 41.358,58.097 41.083 C 58.451 40.808,59.262 40.133,59.899 39.583 C 61.643 38.079,63.181 36.798,63.833 36.308 C 64.154 36.067,64.772 35.542,65.206 35.143 C 65.641 34.744,66.407 34.079,66.910 33.667 C 68.186 32.621,68.244 30.999,67.081 28.917 C 66.876 28.550,66.620 27.885,66.513 27.438 C 66.049 25.504,65.324 24.571,64.583 24.955 M84.917 28.675 C 84.367 29.125,83.729 29.645,83.500 29.829 C 83.271 30.013,82.671 30.545,82.167 31.011 C 81.662 31.476,80.809 32.208,80.269 32.637 C 79.730 33.066,78.445 34.129,77.414 35.000 C 76.383 35.871,75.254 36.808,74.905 37.083 C 74.557 37.358,73.626 38.146,72.836 38.833 L 71.400 40.083 71.519 40.750 C 71.697 41.753,72.114 43.159,72.483 44.000 C 72.663 44.413,72.968 45.291,73.159 45.953 C 73.785 48.120,74.373 48.405,75.641 47.158 C 76.145 46.664,78.178 44.957,79.006 44.333 C 79.493 43.967,80.017 43.511,81.667 42.017 C 81.896 41.809,82.533 41.303,83.083 40.892 C 83.633 40.480,84.683 39.593,85.417 38.920 C 87.225 37.261,88.133 36.548,88.873 36.205 C 89.665 35.839,89.688 35.401,89.000 33.833 C 88.725 33.207,88.500 32.508,88.500 32.281 C 88.500 32.053,88.285 31.459,88.023 30.961 C 87.761 30.462,87.454 29.671,87.342 29.202 C 86.975 27.673,86.315 27.530,84.917 28.675 M107.588 33.042 C 106.967 33.523,106.261 34.067,106.019 34.250 C 105.777 34.433,105.366 34.782,105.105 35.024 C 104.450 35.635,103.935 36.065,100.275 39.059 C 99.923 39.347,98.610 40.447,97.359 41.502 C 96.107 42.557,94.697 43.738,94.225 44.128 L 93.367 44.836 93.677 46.253 C 93.847 47.033,94.214 48.335,94.493 49.147 C 94.772 49.959,95.000 50.756,95.000 50.920 C 95.000 51.367,96.045 53.333,96.283 53.333 C 96.398 53.333,97.027 52.865,97.682 52.292 C 98.336 51.719,99.482 50.742,100.227 50.121 C 100.973 49.500,101.771 48.827,102.000 48.625 C 103.023 47.726,105.088 45.987,106.401 44.917 C 107.189 44.275,108.173 43.432,108.587 43.044 C 109.002 42.656,109.745 42.040,110.238 41.675 C 110.731 41.311,111.287 40.799,111.474 40.536 L 111.814 40.060 111.412 38.572 C 111.191 37.753,110.813 36.483,110.572 35.750 C 109.254 31.746,109.256 31.748,107.588 33.042 M345.500 43.324 C 342.627 43.716,341.594 46.396,343.656 48.108 L 344.229 48.583 347.463 48.667 L 350.696 48.750 351.098 49.218 L 351.500 49.685 351.500 65.570 C 351.500 75.335,351.563 81.789,351.665 82.323 C 352.260 85.462,354.829 86.178,356.577 83.692 L 357.083 82.971 357.167 66.158 C 357.245 50.310,357.267 49.328,357.547 49.048 C 357.806 48.789,358.265 48.739,361.061 48.667 C 364.278 48.583,364.278 48.583,364.894 48.113 C 366.726 46.714,366.374 44.297,364.234 43.582 C 363.186 43.231,347.734 43.018,345.500 43.324 M241.540 43.500 C 240.346 43.752,239.944 44.036,239.417 45.001 L 238.917 45.917 238.917 64.167 L 238.917 82.417 239.367 83.347 C 239.677 83.989,240.031 84.420,240.505 84.733 L 241.192 85.188 246.221 85.125 C 251.624 85.057,251.936 85.008,253.833 83.921 C 254.063 83.790,254.588 83.499,255.000 83.276 C 257.451 81.946,259.980 78.239,260.328 75.464 C 260.551 73.684,260.553 55.071,260.330 53.127 C 260.210 52.078,260.024 51.396,259.665 50.690 C 259.391 50.150,259.167 49.662,259.167 49.605 C 259.167 49.367,257.056 46.764,256.382 46.171 C 255.246 45.171,252.843 44.019,251.268 43.719 C 249.699 43.420,242.671 43.262,241.540 43.500 M322.068 43.500 C 319.348 44.059,319.593 42.118,319.530 63.583 C 319.469 84.483,319.425 83.675,320.681 84.578 L 321.501 85.167 329.309 85.167 L 337.117 85.167 337.791 84.678 C 339.485 83.451,339.225 80.836,337.333 80.059 C 336.455 79.698,336.211 79.682,331.563 79.674 C 326.610 79.667,325.509 79.543,325.134 78.953 C 325.063 78.842,325.004 76.269,325.003 73.237 L 325.000 67.725 325.430 67.321 C 325.853 66.923,325.918 66.915,329.888 66.817 C 335.208 66.685,335.900 66.420,336.124 64.426 C 336.384 62.123,334.965 61.504,329.417 61.499 C 325.656 61.495,325.447 61.465,325.187 60.895 C 324.905 60.275,324.928 49.662,325.213 49.273 C 325.582 48.768,326.614 48.675,331.883 48.671 C 335.961 48.667,337.109 48.619,337.467 48.433 C 339.419 47.417,339.383 44.460,337.409 43.687 C 336.662 43.394,323.372 43.232,322.068 43.500 M165.667 43.697 C 163.892 43.916,161.220 45.272,160.072 46.537 C 159.555 47.107,158.554 48.694,158.414 49.167 C 158.346 49.396,158.094 49.958,157.853 50.417 L 157.417 51.250 157.417 64.167 C 157.417 76.404,157.433 77.114,157.724 77.667 C 157.894 77.987,158.170 78.640,158.338 79.117 C 159.087 81.243,161.423 83.641,163.503 84.418 C 163.868 84.555,164.485 84.786,164.875 84.931 C 165.425 85.137,166.048 85.182,167.667 85.131 C 169.806 85.065,169.724 85.085,171.833 84.099 C 177.059 81.655,179.332 72.833,174.736 72.833 C 173.036 72.833,172.260 73.572,171.974 75.463 C 171.240 80.308,164.802 81.186,163.147 76.667 L 162.750 75.583 162.750 64.167 L 162.750 52.750 163.149 51.750 C 163.933 49.782,165.235 48.918,167.417 48.917 C 170.166 48.916,171.626 50.416,172.078 53.705 C 172.373 55.854,174.714 56.750,176.300 55.322 C 178.247 53.568,176.774 48.009,173.761 45.740 C 171.269 43.865,168.985 43.288,165.667 43.697 M191.425 43.695 C 188.001 44.085,185.043 46.209,183.574 49.333 C 183.337 49.837,182.980 50.587,182.780 51.000 L 182.417 51.750 182.417 67.708 L 182.417 83.667 183.167 84.354 C 184.649 85.715,186.835 85.238,187.350 83.442 C 187.432 83.154,187.506 80.331,187.513 77.168 C 187.531 69.063,187.072 69.667,193.203 69.667 C 199.320 69.667,198.801 68.981,198.877 77.167 C 198.940 83.898,198.930 83.838,200.028 84.655 C 201.618 85.838,203.673 84.921,204.007 82.878 C 204.220 81.577,204.209 55.208,203.995 53.170 C 203.811 51.427,203.077 49.255,202.400 48.450 C 202.180 48.189,202.000 47.906,202.000 47.822 C 202.000 47.627,200.625 46.227,199.938 45.723 C 198.580 44.726,196.450 43.858,194.917 43.678 C 193.256 43.482,193.292 43.482,191.425 43.695 M213.250 43.605 C 212.007 43.917,211.837 44.035,211.298 44.969 L 210.750 45.917 210.750 64.250 L 210.750 82.583 211.128 83.333 C 212.037 85.137,213.485 85.691,214.855 84.759 C 216.152 83.878,216.167 83.778,216.167 75.541 L 216.167 68.244 216.574 67.645 C 217.065 66.922,217.416 66.833,219.780 66.833 C 224.075 66.833,225.550 68.545,226.087 74.153 C 226.221 75.547,226.479 77.190,226.660 77.802 C 226.841 78.415,227.069 79.812,227.167 80.907 C 227.491 84.545,229.373 86.192,231.456 84.661 C 232.583 83.832,232.773 82.994,232.435 80.357 C 232.286 79.198,232.093 77.457,232.006 76.488 C 231.919 75.518,231.773 74.529,231.681 74.288 C 231.590 74.048,231.400 72.810,231.260 71.537 C 231.005 69.224,230.821 68.634,229.740 66.667 C 229.005 65.330,228.959 65.189,229.065 64.624 C 229.163 64.101,229.522 63.617,230.763 62.332 C 230.985 62.101,231.167 61.854,231.167 61.781 C 231.167 61.708,231.356 61.372,231.587 61.033 C 233.511 58.216,233.531 52.753,231.630 49.333 C 230.268 46.882,226.960 44.410,224.250 43.819 C 223.409 43.635,213.867 43.449,213.250 43.605 M274.066 43.761 C 270.871 44.298,267.396 47.238,266.665 50.023 C 266.560 50.423,266.368 51.071,266.237 51.464 C 266.041 52.055,266.000 54.234,266.001 64.131 L 266.002 76.083 266.484 77.755 C 267.320 80.651,269.885 83.700,272.000 84.312 C 272.412 84.431,272.938 84.650,273.167 84.797 C 273.678 85.127,277.070 85.285,278.083 85.026 C 279.281 84.721,281.080 83.981,281.217 83.738 C 281.290 83.607,281.552 83.394,281.800 83.264 C 285.356 81.398,287.405 73.980,284.632 73.013 C 282.454 72.254,281.176 73.229,280.500 76.167 C 279.601 80.075,274.305 80.862,272.161 77.405 C 271.560 76.437,271.470 74.351,271.545 63.167 C 271.628 50.701,271.579 50.999,273.815 49.457 C 275.909 48.012,279.738 49.343,280.336 51.724 C 281.262 55.405,282.443 56.683,284.230 55.936 C 286.223 55.103,286.473 50.509,284.651 48.192 C 284.476 47.970,284.333 47.711,284.333 47.616 C 284.333 47.198,282.027 45.284,280.920 44.783 C 280.555 44.617,280.136 44.373,279.990 44.241 C 279.361 43.672,276.146 43.411,274.066 43.761 M293.667 43.603 C 292.242 43.862,291.720 44.437,291.340 46.167 C 291.032 47.566,291.116 81.462,291.431 82.845 C 291.971 85.220,294.104 85.924,295.866 84.308 C 296.787 83.463,296.825 83.099,296.829 75.079 C 296.834 67.106,296.793 67.398,297.964 67.012 C 298.895 66.705,302.241 66.845,302.917 67.220 C 303.192 67.373,303.512 67.498,303.629 67.499 C 303.969 67.501,305.281 68.797,305.747 69.593 C 306.105 70.204,306.229 70.782,306.503 73.120 C 306.684 74.658,306.906 76.229,306.997 76.611 C 307.088 76.993,307.267 78.493,307.395 79.945 C 307.733 83.780,308.799 85.394,310.816 85.123 C 312.940 84.839,313.767 82.920,313.015 80.020 C 312.820 79.269,312.553 77.588,312.420 76.285 C 312.288 74.983,312.063 73.528,311.920 73.054 C 311.778 72.579,311.558 71.417,311.433 70.471 C 311.239 69.013,311.074 68.471,310.347 66.923 C 309.333 64.765,309.340 64.608,310.504 63.117 C 310.948 62.549,311.480 61.868,311.686 61.605 C 316.339 55.642,312.383 45.499,304.750 43.820 C 303.929 43.640,294.483 43.455,293.667 43.603 M377.250 43.611 C 375.201 43.861,373.682 44.339,372.400 45.136 C 371.410 45.752,370.818 46.233,370.293 46.851 C 369.951 47.254,369.530 47.733,369.358 47.917 C 368.853 48.452,368.019 50.241,367.706 51.458 C 367.281 53.111,367.260 82.739,367.683 83.668 C 368.363 85.161,370.391 85.634,371.529 84.565 C 372.638 83.523,372.659 83.383,372.663 76.917 C 372.669 68.973,372.114 69.700,378.167 69.700 C 384.315 69.700,383.724 68.941,383.833 76.970 C 383.909 82.533,383.945 83.141,384.232 83.719 C 385.187 85.641,387.624 85.649,388.689 83.734 L 389.145 82.917 389.156 68.215 L 389.167 53.513 388.728 51.798 C 387.305 46.234,382.695 42.946,377.250 43.611 M249.384 48.827 C 251.980 49.100,253.445 50.222,254.580 52.804 L 255.167 54.137 255.167 64.245 L 255.167 74.352 254.549 75.775 C 253.497 78.196,252.314 79.048,249.441 79.452 C 247.221 79.764,245.569 79.650,244.920 79.140 L 244.495 78.805 244.539 64.170 C 244.581 50.181,244.597 49.520,244.893 49.193 C 245.341 48.697,246.925 48.568,249.384 48.827 M194.841 49.028 C 196.336 49.549,197.598 50.790,198.315 52.445 L 198.833 53.639 198.833 58.467 L 198.833 63.295 198.166 63.897 L 197.499 64.500 193.291 64.499 C 187.117 64.498,187.436 64.857,187.527 58.015 L 187.590 53.250 188.138 52.083 C 189.344 49.521,192.339 48.155,194.841 49.028 M224.306 49.489 C 224.935 49.830,225.608 50.368,225.972 50.821 C 226.308 51.238,226.699 51.709,226.840 51.867 C 227.224 52.297,227.833 54.335,227.833 55.188 C 227.833 57.219,226.416 59.586,224.503 60.748 C 223.310 61.473,221.504 61.752,218.866 61.621 C 216.149 61.485,216.169 61.532,216.169 55.167 C 216.169 48.446,215.944 48.794,220.250 48.866 L 223.250 48.917 224.306 49.489 M304.833 49.528 C 309.268 52.028,309.341 58.104,304.968 60.768 C 303.040 61.942,297.538 62.030,297.020 60.894 C 296.894 60.618,296.833 58.711,296.833 55.068 L 296.833 49.652 297.258 49.227 L 297.683 48.802 300.717 48.859 L 303.750 48.917 304.833 49.528 M380.583 49.327 C 383.297 50.646,383.705 51.755,383.794 58.053 L 383.863 63.022 383.445 63.654 C 382.905 64.470,382.701 64.501,378.000 64.478 C 372.147 64.451,372.635 65.055,372.702 57.915 L 372.750 52.747 373.520 51.582 C 375.234 48.990,378.044 48.093,380.583 49.327 " stroke="none" fill="#121212" fill-rule="evenodd"></path><path id="path1" d="M59.892 16.823 C 59.432 17.021,57.818 18.253,56.750 19.221 C 55.595 20.269,55.108 20.686,53.647 21.879 C 51.484 23.647,47.649 26.873,46.592 27.814 C 45.501 28.785,43.996 29.966,43.456 30.277 C 43.271 30.384,42.961 30.656,42.768 30.881 C 42.376 31.338,40.304 33.103,39.107 34.000 C 38.678 34.321,37.944 34.941,37.475 35.377 C 37.006 35.814,36.174 36.526,35.626 36.961 C 35.078 37.395,33.757 38.488,32.690 39.390 C 31.623 40.292,30.500 41.229,30.195 41.473 C 29.379 42.126,28.917 42.511,28.126 43.202 C 27.296 43.926,25.152 45.699,24.238 46.417 C 23.887 46.692,23.372 47.120,23.092 47.368 C 22.128 48.225,19.879 50.085,19.104 50.667 C 18.677 50.987,17.944 51.607,17.475 52.044 C 17.006 52.480,16.172 53.193,15.623 53.627 C 14.706 54.352,12.092 56.566,11.585 57.046 C 11.467 57.158,10.969 57.550,10.479 57.917 C 8.949 59.060,7.523 60.629,7.317 61.395 C 7.215 61.774,7.016 62.307,6.875 62.581 C 6.536 63.236,6.555 65.243,6.907 66.086 C 7.052 66.434,7.278 67.176,7.407 67.734 C 7.537 68.293,7.758 68.972,7.899 69.243 C 8.039 69.514,8.286 70.292,8.446 70.972 L 8.738 72.209 8.994 71.617 C 9.233 71.065,12.084 68.497,15.086 66.131 C 16.423 65.078,16.910 64.677,17.577 64.083 C 17.887 63.808,18.427 63.347,18.778 63.058 C 19.129 62.769,19.759 62.244,20.178 61.891 C 20.596 61.538,21.190 61.063,21.496 60.833 C 21.802 60.604,22.896 59.704,23.927 58.833 C 29.685 53.969,30.572 53.228,30.916 53.000 C 31.123 52.862,31.909 52.190,32.663 51.505 C 33.417 50.820,34.243 50.107,34.499 49.921 C 35.548 49.158,36.294 48.548,37.083 47.810 C 37.967 46.984,38.747 46.335,40.165 45.250 C 41.275 44.401,41.883 43.896,42.677 43.167 C 43.026 42.846,43.561 42.382,43.864 42.136 C 46.571 39.942,52.946 34.623,56.319 31.744 C 57.289 30.916,58.758 29.690,59.583 29.019 C 60.408 28.349,61.496 27.441,62.000 27.000 C 64.549 24.774,64.954 24.533,65.411 24.968 C 65.812 25.349,65.657 24.631,65.068 23.376 C 64.843 22.895,64.538 21.958,64.391 21.293 C 64.243 20.628,64.027 19.971,63.910 19.833 C 63.793 19.696,63.569 19.208,63.413 18.750 C 62.897 17.235,61.153 16.280,59.892 16.823 M84.821 28.268 C 84.232 28.756,83.494 29.365,83.181 29.620 C 82.869 29.875,82.419 30.270,82.181 30.498 C 81.529 31.126,80.478 32.007,79.497 32.750 C 79.013 33.117,77.971 34.006,77.183 34.725 C 76.395 35.445,75.487 36.204,75.167 36.412 C 74.846 36.619,73.886 37.406,73.034 38.161 C 70.902 40.049,70.525 39.860,69.661 36.476 C 69.468 35.723,69.200 34.893,69.065 34.632 C 68.930 34.371,68.773 33.655,68.716 33.042 C 68.646 32.296,68.429 31.537,68.062 30.755 C 67.438 29.426,67.391 29.446,67.763 30.882 C 68.139 32.334,68.004 32.776,66.914 33.667 C 66.409 34.079,65.641 34.744,65.206 35.143 C 64.772 35.542,64.154 36.067,63.833 36.308 C 63.181 36.798,61.643 38.079,59.899 39.583 C 59.262 40.133,58.451 40.808,58.097 41.083 C 57.743 41.358,56.057 42.773,54.351 44.227 C 52.646 45.681,50.950 47.121,50.583 47.428 C 48.961 48.785,46.115 51.175,44.904 52.200 C 44.178 52.814,43.021 53.780,42.333 54.346 C 41.646 54.913,40.633 55.779,40.083 56.271 C 39.533 56.762,38.596 57.549,38.000 58.019 C 37.404 58.490,36.504 59.238,36.000 59.683 C 35.092 60.483,29.427 65.272,28.366 66.135 C 28.063 66.382,27.538 66.826,27.199 67.122 C 26.861 67.418,25.976 68.168,25.233 68.789 C 24.491 69.409,23.706 70.067,23.488 70.250 C 23.271 70.433,22.932 70.696,22.736 70.833 C 22.540 70.971,21.728 71.682,20.932 72.414 C 20.136 73.146,19.368 73.811,19.226 73.890 C 19.084 73.970,17.860 74.983,16.506 76.142 C 15.152 77.302,13.903 78.364,13.730 78.502 C 13.558 78.641,13.092 79.014,12.696 79.332 L 11.975 79.909 11.656 79.496 L 11.336 79.083 11.439 79.667 C 11.495 79.987,11.745 80.775,11.994 81.417 C 12.243 82.058,12.577 83.107,12.735 83.747 C 12.893 84.387,13.091 84.992,13.174 85.092 C 13.256 85.191,13.444 85.793,13.590 86.428 C 13.736 87.064,13.995 87.822,14.165 88.113 C 14.335 88.404,14.595 89.111,14.741 89.684 C 14.888 90.257,15.090 90.825,15.191 90.946 C 15.291 91.067,15.548 91.747,15.761 92.458 C 15.975 93.169,16.303 94.219,16.491 94.792 C 16.679 95.365,16.987 96.302,17.176 96.875 C 17.364 97.448,17.632 98.367,17.772 98.917 C 17.911 99.467,18.164 100.142,18.333 100.417 C 18.503 100.692,18.733 101.292,18.845 101.750 C 18.957 102.208,19.163 102.808,19.303 103.083 C 19.444 103.358,19.729 104.146,19.938 104.833 C 21.074 108.569,21.795 109.986,22.733 110.325 C 23.779 110.704,24.990 110.459,25.831 109.699 C 26.003 109.544,26.495 109.117,26.925 108.750 C 27.354 108.383,28.013 107.793,28.388 107.438 C 29.007 106.852,30.053 106.016,31.364 105.060 C 31.633 104.865,31.942 104.590,32.051 104.451 C 32.242 104.208,33.667 102.990,36.111 100.980 C 36.738 100.465,37.754 99.736,38.370 99.360 C 38.987 98.984,39.634 98.543,39.809 98.380 C 39.984 98.217,40.440 97.821,40.821 97.500 C 41.202 97.179,41.718 96.729,41.966 96.500 C 42.214 96.271,42.792 95.783,43.250 95.417 C 43.708 95.050,45.144 93.850,46.440 92.750 C 47.736 91.650,49.443 90.225,50.233 89.583 C 51.023 88.942,52.025 88.091,52.460 87.693 C 52.894 87.296,53.690 86.621,54.229 86.193 C 55.175 85.443,55.948 84.791,61.192 80.328 C 62.535 79.185,64.110 77.862,64.692 77.387 C 65.274 76.913,66.096 76.200,66.519 75.804 C 66.942 75.408,67.574 74.858,67.923 74.583 C 68.634 74.023,70.937 72.065,72.339 70.828 C 72.846 70.380,73.746 69.629,74.339 69.158 C 77.683 66.500,78.768 63.735,77.771 60.417 C 77.633 59.958,77.338 58.942,77.114 58.157 C 76.891 57.373,76.597 56.510,76.462 56.240 C 76.326 55.971,76.125 55.375,76.014 54.917 C 75.903 54.458,75.668 53.838,75.493 53.538 C 75.318 53.239,75.061 52.557,74.923 52.023 C 74.784 51.489,74.515 50.700,74.324 50.268 C 73.870 49.242,75.151 47.537,77.500 46.039 C 77.729 45.893,78.080 45.618,78.279 45.428 C 78.479 45.239,78.921 44.858,79.262 44.583 C 79.604 44.308,80.191 43.809,80.566 43.474 C 81.868 42.312,83.865 40.667,83.974 40.665 C 84.034 40.665,84.549 40.233,85.117 39.707 C 87.067 37.902,88.964 36.396,89.417 36.294 C 89.719 36.225,89.723 36.206,89.461 36.092 C 89.025 35.902,87.316 37.096,85.417 38.918 C 84.867 39.445,83.892 40.274,83.250 40.759 C 82.608 41.243,81.896 41.810,81.667 42.017 C 79.986 43.538,79.494 43.967,79.006 44.333 C 78.178 44.957,76.145 46.664,75.641 47.158 C 74.373 48.405,73.785 48.120,73.159 45.953 C 72.968 45.291,72.663 44.413,72.483 44.000 C 72.114 43.159,71.697 41.753,71.519 40.750 L 71.400 40.083 72.836 38.833 C 73.626 38.146,74.557 37.358,74.905 37.083 C 75.254 36.808,76.383 35.871,77.414 35.000 C 78.445 34.129,79.730 33.066,80.269 32.637 C 80.809 32.208,81.662 31.476,82.167 31.011 C 82.671 30.545,83.271 30.013,83.500 29.828 C 83.729 29.644,84.375 29.121,84.935 28.668 C 85.877 27.905,85.994 27.855,86.497 27.999 C 87.021 28.149,87.031 28.144,86.760 27.844 C 86.245 27.275,85.937 27.342,84.821 28.268 M345.542 43.282 C 345.702 43.323,345.965 43.323,346.125 43.282 C 346.285 43.240,346.154 43.205,345.833 43.205 C 345.512 43.205,345.381 43.240,345.542 43.282 M362.208 43.282 C 362.369 43.323,362.631 43.323,362.792 43.282 C 362.952 43.240,362.821 43.205,362.500 43.205 C 362.179 43.205,362.048 43.240,362.208 43.282 M93.000 45.100 C 93.000 45.563,93.844 48.730,94.240 49.750 C 94.454 50.300,94.676 51.012,94.734 51.333 C 94.852 51.986,95.740 53.500,96.005 53.500 C 96.099 53.500,95.911 52.989,95.588 52.364 C 95.265 51.739,95.000 51.098,95.000 50.939 C 95.000 50.779,94.741 49.875,94.425 48.930 C 94.109 47.984,93.759 46.717,93.647 46.113 C 93.469 45.144,93.000 44.411,93.000 45.100 M246.788 48.787 C 247.084 48.824,247.609 48.824,247.955 48.788 C 248.300 48.752,248.058 48.722,247.417 48.721 C 246.775 48.721,246.492 48.750,246.788 48.787 M328.885 48.791 C 330.243 48.819,332.418 48.819,333.719 48.791 C 335.019 48.763,333.908 48.740,331.250 48.740 C 328.592 48.740,327.528 48.763,328.885 48.791 M271.578 64.417 C 271.578 70.100,271.599 72.449,271.625 69.637 C 271.650 66.825,271.651 62.175,271.625 59.304 C 271.599 56.432,271.578 58.733,271.578 64.417 M187.573 58.750 C 187.573 61.133,187.596 62.085,187.625 60.865 C 187.653 59.645,187.653 57.695,187.624 56.532 C 187.596 55.368,187.573 56.367,187.573 58.750 M389.246 68.250 C 389.246 75.767,389.267 78.817,389.292 75.029 C 389.317 71.241,389.317 65.091,389.292 61.363 C 389.267 57.634,389.246 60.733,389.246 68.250 M187.574 76.583 C 187.574 79.517,187.597 80.693,187.625 79.198 C 187.652 77.702,187.652 75.302,187.625 73.865 C 187.597 72.427,187.574 73.650,187.574 76.583 " stroke="none" fill="#c1191f" fill-rule="evenodd"></path><path id="path2" d="M0.000 63.000 L 0.000 126.000 200.000 126.000 L 400.000 126.000 400.000 63.000 L 400.000 0.000 200.000 0.000 L 0.000 0.000 0.000 63.000 M61.657 16.331 C 62.824 16.665,64.060 18.479,64.730 20.840 C 65.228 22.596,65.710 23.925,66.187 24.859 C 66.452 25.377,66.742 26.202,66.831 26.692 C 66.920 27.182,67.194 27.996,67.440 28.500 C 67.686 29.004,67.940 29.529,68.004 29.667 C 68.228 30.150,68.185 30.183,75.507 23.968 C 81.285 19.063,81.512 18.937,83.200 19.697 C 84.087 20.096,84.982 21.343,85.331 22.667 C 85.780 24.369,86.711 26.939,86.991 27.250 C 87.424 27.730,87.612 28.156,87.744 28.953 C 87.809 29.340,88.001 29.834,88.171 30.051 C 88.342 30.268,88.571 30.814,88.681 31.265 C 88.843 31.928,89.882 34.425,90.084 34.637 C 90.239 34.800,91.513 33.895,93.583 32.151 C 94.867 31.069,96.479 29.725,97.167 29.162 C 97.854 28.599,98.884 27.722,99.455 27.213 C 100.027 26.703,100.711 26.128,100.976 25.935 C 101.241 25.742,101.886 25.258,102.410 24.859 C 104.524 23.251,106.440 23.735,107.326 26.102 C 107.513 26.602,107.769 27.177,107.895 27.380 C 108.022 27.584,108.214 28.125,108.323 28.583 C 108.432 29.042,108.635 29.591,108.772 29.803 C 108.910 30.016,109.133 30.504,109.268 30.887 C 109.403 31.270,109.693 31.846,109.912 32.167 C 110.132 32.487,110.459 33.313,110.640 34.000 C 110.821 34.688,111.126 35.679,111.318 36.204 C 111.510 36.729,111.667 37.329,111.668 37.538 C 111.669 37.746,111.845 38.292,112.058 38.750 C 112.272 39.209,112.489 40.055,112.541 40.631 C 112.593 41.207,112.754 41.858,112.897 42.077 C 113.041 42.297,113.314 43.055,113.503 43.763 C 113.693 44.471,113.920 45.184,114.008 45.348 C 114.096 45.513,114.353 46.308,114.580 47.115 C 115.170 49.219,115.633 50.594,116.169 51.833 C 116.426 52.429,116.689 53.179,116.752 53.500 C 116.815 53.821,116.972 54.250,117.101 54.454 C 117.230 54.658,117.439 55.220,117.565 55.704 C 117.821 56.687,118.696 59.432,119.200 60.833 C 119.381 61.337,119.629 62.148,119.752 62.635 C 119.874 63.121,120.085 63.688,120.219 63.893 C 120.354 64.099,120.618 64.751,120.807 65.342 C 120.995 65.933,121.301 66.829,121.486 67.333 C 121.875 68.393,121.970 71.587,121.645 72.673 C 121.270 73.926,119.962 75.265,115.812 78.646 C 115.319 79.047,114.504 79.739,114.000 80.185 C 113.496 80.630,112.596 81.380,112.000 81.850 C 111.404 82.321,110.467 83.102,109.917 83.587 C 108.704 84.654,105.211 87.596,102.993 89.417 C 101.296 90.810,99.416 92.391,95.449 95.759 C 94.148 96.864,92.633 98.129,92.083 98.570 C 91.533 99.011,90.505 99.894,89.798 100.532 C 89.092 101.171,88.229 101.900,87.882 102.154 C 87.534 102.407,86.574 103.207,85.748 103.932 C 84.172 105.316,83.454 105.923,82.417 106.750 C 82.073 107.025,81.444 107.579,81.020 107.981 C 80.597 108.383,79.961 108.924,79.608 109.184 C 79.254 109.443,78.354 110.231,77.608 110.935 C 76.861 111.639,76.025 112.310,75.750 112.427 C 75.475 112.543,74.592 113.281,73.789 114.067 C 72.985 114.852,72.114 115.605,71.853 115.740 C 71.592 115.875,71.199 116.137,70.981 116.321 C 68.880 118.097,68.361 118.391,67.311 118.395 C 66.084 118.399,64.937 117.289,64.502 115.675 C 64.404 115.311,64.139 114.616,63.914 114.131 C 63.688 113.647,63.503 113.094,63.502 112.903 C 63.501 112.713,63.311 112.188,63.081 111.737 C 62.850 111.286,62.544 110.470,62.401 109.924 C 62.257 109.378,62.039 108.737,61.917 108.500 C 61.794 108.263,61.571 107.584,61.421 106.993 C 61.272 106.401,61.000 105.542,60.817 105.083 C 60.635 104.625,60.392 103.783,60.279 103.212 L 60.073 102.174 59.262 102.750 C 58.817 103.066,58.107 103.643,57.684 104.030 C 56.866 104.781,55.632 105.798,54.648 106.532 C 54.317 106.780,53.742 107.267,53.371 107.616 C 52.350 108.574,51.566 109.244,49.917 110.563 C 49.092 111.223,48.229 111.924,48.000 112.122 C 46.268 113.617,45.885 113.833,44.983 113.833 C 43.714 113.833,42.122 112.197,41.657 110.417 C 41.562 110.050,41.307 109.225,41.091 108.583 C 40.876 107.942,40.425 106.517,40.090 105.417 C 39.755 104.317,39.302 103.042,39.082 102.583 C 38.863 102.125,38.595 101.450,38.488 101.083 C 38.153 99.938,37.888 99.971,36.215 101.361 C 35.738 101.758,34.173 103.058,32.737 104.250 C 31.302 105.442,29.068 107.320,27.772 108.425 C 25.031 110.761,25.143 110.684,24.263 110.851 C 22.192 111.243,20.928 109.644,19.663 105.031 C 19.471 104.333,19.249 103.682,19.168 103.585 C 19.088 103.489,18.874 102.875,18.693 102.223 C 18.512 101.570,18.250 100.859,18.110 100.643 C 17.970 100.427,17.764 99.875,17.653 99.417 C 17.542 98.958,17.321 98.321,17.162 98.000 C 17.004 97.679,16.819 97.162,16.752 96.852 C 16.685 96.541,16.376 95.511,16.065 94.562 C 15.754 93.614,15.500 92.703,15.500 92.537 C 15.500 92.372,15.344 91.940,15.153 91.577 C 14.963 91.214,14.671 90.467,14.506 89.917 C 14.341 89.367,14.051 88.542,13.862 88.083 C 13.674 87.625,13.403 86.894,13.260 86.458 C 13.117 86.023,12.895 85.348,12.766 84.958 C 12.637 84.569,12.217 83.256,11.831 82.042 C 11.446 80.827,10.995 79.660,10.828 79.448 C 10.662 79.236,10.401 78.580,10.249 77.990 C 10.097 77.400,9.830 76.686,9.657 76.404 C 9.484 76.123,9.257 75.494,9.153 75.008 C 9.048 74.521,8.819 73.878,8.642 73.579 C 8.466 73.280,8.256 72.483,8.177 71.809 C 8.098 71.135,7.920 70.321,7.782 70.000 C 7.644 69.679,7.408 68.929,7.258 68.333 C 7.109 67.737,6.831 66.880,6.642 66.427 C 5.549 63.817,6.755 60.428,9.569 58.204 C 10.218 57.690,11.537 56.589,12.500 55.756 C 13.463 54.923,14.512 54.046,14.833 53.807 C 15.154 53.568,16.546 52.407,17.927 51.228 C 19.308 50.048,20.829 48.783,21.307 48.417 C 21.785 48.050,22.498 47.450,22.891 47.083 C 23.284 46.717,24.115 46.004,24.738 45.500 C 25.362 44.996,26.400 44.133,27.046 43.583 C 29.680 41.341,30.706 40.500,30.809 40.500 C 30.869 40.500,31.354 40.084,31.887 39.576 C 32.420 39.068,33.508 38.128,34.303 37.488 C 35.975 36.143,36.732 35.502,37.696 34.613 C 38.076 34.263,38.656 33.776,38.985 33.532 C 39.876 32.872,41.223 31.777,41.415 31.557 C 41.590 31.357,42.592 30.505,43.835 29.500 C 44.232 29.179,45.875 27.808,47.486 26.453 C 49.098 25.098,51.342 23.223,52.472 22.286 C 55.637 19.664,57.039 18.471,57.560 17.958 C 59.101 16.441,60.334 15.951,61.657 16.331 M250.603 43.042 C 250.888 43.194,251.601 43.396,252.186 43.490 C 254.482 43.859,257.698 46.102,258.673 48.013 C 258.848 48.356,259.058 48.662,259.139 48.693 C 259.220 48.724,259.449 49.087,259.649 49.500 C 259.848 49.913,260.117 50.439,260.246 50.671 C 261.724 53.307,261.555 76.561,260.047 78.210 C 259.859 78.415,259.651 78.771,259.586 79.000 C 259.520 79.229,259.249 79.694,258.983 80.032 C 258.717 80.370,258.499 80.708,258.497 80.782 C 258.494 80.908,257.242 82.244,256.555 82.855 C 256.387 83.004,255.870 83.317,255.406 83.550 C 254.942 83.783,254.464 84.092,254.344 84.237 C 254.224 84.382,254.010 84.500,253.868 84.500 C 253.726 84.500,253.116 84.742,252.513 85.038 L 251.417 85.575 246.707 85.640 C 240.595 85.723,239.680 85.536,239.235 84.115 C 239.172 83.914,238.981 83.571,238.810 83.353 C 238.512 82.970,238.500 82.240,238.500 64.203 L 238.500 45.451 239.077 44.582 C 239.629 43.750,240.695 43.027,241.750 42.768 C 242.681 42.541,250.091 42.770,250.603 43.042 M337.667 43.265 C 339.580 44.340,340.153 46.180,339.050 47.704 C 338.005 49.148,338.374 49.072,331.863 49.171 C 325.848 49.262,325.595 49.290,325.435 49.887 C 325.293 50.418,325.317 60.217,325.461 60.433 C 325.788 60.923,326.393 61.000,329.947 61.004 C 334.995 61.010,336.242 61.484,336.567 63.520 C 337.034 66.439,335.481 67.328,329.893 67.341 C 327.119 67.348,326.489 67.396,326.000 67.635 L 325.417 67.920 325.373 73.286 C 325.332 78.298,325.348 78.663,325.627 78.812 C 325.794 78.901,328.365 78.996,331.445 79.028 C 336.257 79.076,337.005 79.118,337.274 79.355 C 337.444 79.504,337.827 79.750,338.126 79.901 C 340.343 81.024,339.847 84.805,337.394 85.486 C 336.580 85.712,322.147 85.733,321.368 85.510 C 320.554 85.277,319.806 84.569,319.292 83.546 L 318.833 82.635 318.833 64.276 L 318.834 45.917 319.318 44.893 C 319.797 43.881,320.496 43.360,322.167 42.772 C 322.304 42.724,325.642 42.699,329.583 42.717 L 336.750 42.750 337.667 43.265 M364.633 43.208 C 366.947 44.444,367.273 46.298,365.515 48.223 C 364.769 49.040,364.588 49.079,361.139 49.166 C 359.336 49.212,357.798 49.312,357.722 49.389 C 357.646 49.465,357.546 57.156,357.500 66.480 C 357.424 81.865,357.391 83.469,357.142 83.841 C 355.475 86.322,353.032 86.336,351.556 83.872 L 351.083 83.083 351.000 66.383 C 350.933 53.014,350.874 49.640,350.701 49.467 C 350.545 49.310,349.593 49.227,347.279 49.167 L 344.074 49.083 343.290 48.441 C 342.180 47.531,341.838 45.996,342.419 44.542 C 342.678 43.896,342.852 43.747,344.143 43.060 L 344.883 42.667 354.251 42.667 L 363.618 42.667 364.633 43.208 M168.646 43.076 C 169.024 43.210,169.798 43.403,170.365 43.506 C 174.771 44.305,178.412 49.703,177.486 54.065 C 176.801 57.292,172.092 57.218,171.589 53.972 C 171.430 52.951,171.193 52.210,170.718 51.250 C 169.323 48.434,164.564 48.964,163.632 52.039 C 163.259 53.271,163.325 75.478,163.705 76.605 C 164.369 78.572,166.502 79.508,168.929 78.899 C 169.961 78.640,171.491 76.305,171.504 74.972 C 171.522 73.067,173.607 71.850,175.729 72.506 C 177.512 73.056,177.946 74.292,177.425 77.333 C 176.993 79.853,174.748 83.500,173.628 83.500 C 173.500 83.500,173.180 83.725,172.917 84.000 C 172.653 84.275,172.364 84.500,172.274 84.500 C 172.183 84.500,171.616 84.744,171.013 85.042 C 169.919 85.582,169.912 85.583,167.333 85.583 L 164.750 85.583 163.417 84.934 C 162.683 84.576,161.822 84.070,161.504 83.809 C 161.185 83.547,160.859 83.333,160.779 83.333 C 160.279 83.333,158.502 81.025,158.084 79.833 C 157.939 79.421,157.655 78.746,157.452 78.333 L 157.083 77.583 157.083 64.167 L 157.083 50.750 157.633 49.583 C 159.349 45.943,161.481 44.060,164.532 43.491 C 165.110 43.383,165.883 43.195,166.250 43.072 C 167.128 42.779,167.807 42.780,168.646 43.076 M194.536 43.075 C 194.929 43.207,195.775 43.397,196.417 43.497 C 197.058 43.597,197.771 43.814,198.000 43.980 C 198.229 44.146,198.754 44.432,199.167 44.616 C 199.886 44.937,202.167 46.951,202.167 47.265 C 202.167 47.348,202.429 47.712,202.750 48.072 C 203.071 48.432,203.333 48.808,203.333 48.908 C 203.333 49.007,203.496 49.387,203.694 49.752 C 204.574 51.371,204.560 51.115,204.623 67.313 C 204.663 77.703,204.626 82.645,204.501 83.245 C 204.028 85.524,201.165 86.445,199.473 84.864 C 198.514 83.968,198.464 83.611,198.380 77.060 L 198.304 71.204 197.761 70.677 L 197.217 70.150 193.115 70.200 C 187.740 70.266,188.169 69.650,188.168 77.308 C 188.167 81.504,188.116 82.705,187.911 83.410 C 187.237 85.728,184.494 86.442,182.818 84.734 L 182.083 83.986 182.037 68.368 C 181.989 52.250,182.032 50.955,182.654 49.926 C 182.824 49.646,183.017 49.229,183.084 49.000 C 183.323 48.182,184.576 46.687,186.325 45.132 C 186.605 44.883,187.133 44.590,187.500 44.480 C 187.867 44.370,188.167 44.227,188.167 44.161 C 188.167 43.966,189.003 43.690,190.204 43.489 C 190.821 43.385,191.646 43.200,192.038 43.078 C 192.982 42.783,193.670 42.782,194.536 43.075 M222.761 43.073 C 223.213 43.205,224.059 43.397,224.640 43.499 C 225.221 43.602,226.130 43.907,226.660 44.177 C 227.191 44.446,227.668 44.667,227.722 44.667 C 227.918 44.667,229.595 46.035,230.000 46.525 C 230.229 46.802,230.660 47.272,230.958 47.568 C 231.256 47.865,231.500 48.173,231.500 48.253 C 231.500 48.333,231.680 48.590,231.900 48.824 C 234.170 51.245,234.140 59.128,231.850 61.565 C 231.658 61.770,231.500 62.025,231.500 62.131 C 231.500 62.237,231.275 62.490,231.000 62.693 C 230.725 62.896,230.500 63.156,230.500 63.269 C 230.500 63.383,230.322 63.616,230.104 63.787 C 229.479 64.279,229.402 65.020,229.888 65.867 C 230.114 66.261,230.352 66.771,230.416 67.000 C 230.481 67.229,230.710 67.679,230.926 68.000 C 231.217 68.433,231.365 68.992,231.501 70.167 C 231.601 71.037,231.795 72.087,231.932 72.500 C 232.069 72.912,232.291 74.375,232.427 75.750 C 232.562 77.125,232.782 78.746,232.916 79.352 C 233.865 83.641,232.497 86.054,229.382 85.587 C 227.828 85.354,227.058 84.140,226.832 81.566 C 226.750 80.634,226.533 79.427,226.351 78.885 C 226.160 78.318,225.940 76.980,225.835 75.741 C 225.610 73.104,224.725 69.318,224.269 69.046 C 224.150 68.975,223.931 68.728,223.782 68.496 C 223.352 67.828,222.246 67.583,219.650 67.583 C 216.519 67.583,216.861 66.618,216.801 75.638 C 216.756 82.423,216.719 83.304,216.468 83.750 C 215.123 86.132,212.472 86.357,210.975 84.215 L 210.417 83.417 210.373 64.396 L 210.329 45.376 210.889 44.563 C 211.933 43.045,212.732 42.845,217.761 42.839 C 220.914 42.835,222.141 42.892,222.761 43.073 M277.667 43.167 C 278.241 43.350,278.904 43.500,279.141 43.500 C 280.454 43.500,284.010 46.016,284.736 47.458 C 284.886 47.756,285.075 48.000,285.156 48.000 C 285.237 48.000,285.455 48.431,285.641 48.958 C 285.828 49.485,286.094 50.217,286.233 50.583 C 286.617 51.597,286.587 54.110,286.184 54.750 C 284.211 57.881,280.641 56.776,280.135 52.879 C 279.678 49.356,275.243 48.166,272.922 50.943 C 272.000 52.045,272.008 51.935,272.008 64.250 C 272.008 76.361,272.017 76.513,272.832 77.441 C 273.962 78.727,274.289 78.908,275.615 78.975 C 278.259 79.108,279.702 78.056,280.108 75.697 C 280.577 72.972,282.278 71.698,284.460 72.438 C 285.585 72.819,286.484 73.854,286.526 74.816 C 286.580 76.029,286.459 77.267,286.223 77.917 C 286.091 78.283,285.835 78.991,285.656 79.489 C 285.477 79.987,285.181 80.534,284.998 80.704 C 284.816 80.874,284.667 81.090,284.667 81.183 C 284.667 81.448,283.014 83.131,282.354 83.539 C 282.028 83.740,281.628 84.038,281.464 84.202 C 281.301 84.366,281.079 84.500,280.972 84.500 C 280.864 84.500,280.283 84.744,279.680 85.042 C 278.174 85.786,273.909 85.876,272.750 85.188 C 272.383 84.970,271.797 84.690,271.447 84.566 C 270.343 84.174,268.098 82.240,267.568 81.224 C 267.393 80.889,267.092 80.454,266.900 80.256 C 266.707 80.059,266.494 79.602,266.427 79.240 C 266.360 78.879,266.143 78.321,265.944 78.000 L 265.583 77.417 265.583 64.320 C 265.583 51.297,265.585 51.219,265.941 50.403 C 266.137 49.952,266.430 49.265,266.591 48.875 C 266.752 48.485,266.946 48.167,267.022 48.167 C 267.098 48.167,267.310 47.873,267.493 47.514 C 267.966 46.586,269.897 44.726,270.637 44.485 C 270.974 44.375,271.421 44.152,271.629 43.990 C 271.838 43.828,272.520 43.609,273.145 43.504 C 273.770 43.398,274.574 43.208,274.932 43.080 C 275.833 42.759,276.452 42.779,277.667 43.167 M303.265 43.083 C 303.715 43.221,304.553 43.410,305.127 43.503 C 305.701 43.597,306.610 43.897,307.148 44.170 C 307.685 44.443,308.179 44.667,308.247 44.667 C 308.658 44.667,311.040 46.838,311.537 47.667 C 311.730 47.987,312.019 48.400,312.181 48.583 C 312.683 49.153,313.611 51.051,313.730 51.750 C 313.793 52.117,313.962 53.037,314.107 53.796 C 314.400 55.328,313.987 58.620,313.363 59.724 C 312.249 61.698,311.189 63.307,310.779 63.644 C 310.083 64.217,310.102 65.066,310.842 66.582 C 311.364 67.650,311.587 68.371,311.759 69.539 C 311.883 70.388,312.103 71.458,312.247 71.916 C 312.391 72.373,312.588 73.686,312.685 74.832 C 312.781 75.979,313.042 77.619,313.264 78.477 C 313.571 79.668,313.667 80.471,313.667 81.877 L 313.667 83.717 312.792 84.592 C 310.246 87.138,307.435 85.307,307.019 80.833 C 306.912 79.688,306.714 78.341,306.579 77.840 C 306.445 77.340,306.216 75.690,306.072 74.174 C 305.544 68.622,304.519 67.500,299.970 67.500 C 298.563 67.500,297.531 67.720,297.294 68.069 C 297.227 68.169,297.171 71.550,297.169 75.584 C 297.166 83.727,297.165 83.739,296.097 84.762 C 294.443 86.347,292.254 85.862,291.110 83.658 L 290.667 82.803 290.669 64.276 C 290.671 48.433,290.706 45.690,290.912 45.333 C 291.045 45.104,291.282 44.675,291.439 44.379 C 291.658 43.966,291.998 43.726,292.904 43.343 L 294.083 42.844 298.265 42.839 C 301.519 42.835,302.629 42.889,303.265 43.083 M379.536 43.075 C 379.929 43.207,380.754 43.396,381.369 43.494 C 384.596 44.006,388.112 47.241,388.893 50.417 C 389.028 50.967,389.254 51.717,389.395 52.083 C 389.761 53.033,389.800 82.691,389.437 83.560 C 388.297 86.289,384.730 86.352,383.459 83.667 C 383.324 83.381,383.234 81.299,383.173 77.028 C 383.072 70.022,383.162 70.453,381.757 70.242 C 380.009 69.980,373.652 70.232,373.403 70.574 C 373.210 70.838,373.165 71.956,373.159 76.657 C 373.151 83.226,373.118 83.513,372.258 84.563 C 370.607 86.577,367.630 85.764,366.842 83.082 C 366.697 82.588,366.660 78.551,366.700 67.417 L 366.754 52.417 367.267 50.917 C 367.975 48.850,368.552 47.998,370.719 45.825 C 371.388 45.153,372.100 44.604,372.455 44.487 C 372.786 44.378,373.287 44.154,373.570 43.988 C 373.852 43.823,374.588 43.600,375.204 43.494 C 375.821 43.388,376.646 43.200,377.038 43.078 C 377.982 42.783,378.670 42.782,379.536 43.075 M245.840 49.303 C 245.417 49.386,245.233 49.527,245.149 49.833 C 244.929 50.625,244.979 78.579,245.200 78.800 C 245.444 79.044,249.973 79.080,250.795 78.844 C 252.214 78.437,253.604 76.885,254.288 74.943 L 254.825 73.417 254.829 64.138 L 254.833 54.859 254.328 53.554 C 252.997 50.121,249.800 48.519,245.840 49.303 M191.167 49.865 C 188.549 50.937,188.254 51.796,188.252 58.361 L 188.250 62.973 188.654 63.403 L 189.058 63.833 193.237 63.828 L 197.417 63.823 197.875 63.419 L 198.333 63.016 198.331 58.716 C 198.329 54.283,197.949 51.567,197.301 51.351 C 197.192 51.314,196.911 51.077,196.677 50.824 C 195.358 49.403,193.209 49.029,191.167 49.865 M217.145 49.609 C 216.836 49.981,216.717 59.816,217.013 60.532 L 217.207 61.000 219.914 61.000 C 224.067 61.000,226.501 59.543,226.984 56.770 C 227.591 53.283,226.442 50.993,223.489 49.807 C 222.019 49.216,217.587 49.078,217.145 49.609 M297.569 49.749 L 297.153 50.165 297.202 55.326 C 297.261 61.606,296.898 60.987,300.521 60.995 L 303.125 61.000 304.354 60.435 C 308.940 58.326,308.763 51.819,304.066 49.847 C 302.328 49.118,298.262 49.057,297.569 49.749 M376.372 49.805 C 375.295 50.263,374.000 51.321,374.000 51.743 C 374.000 51.874,373.831 52.099,373.625 52.244 C 373.108 52.606,372.932 63.098,373.436 63.516 C 373.950 63.942,382.619 63.852,382.939 63.417 C 383.146 63.136,383.177 62.252,383.134 57.823 L 383.083 52.563 382.417 51.541 C 381.163 49.620,378.563 48.873,376.372 49.805 " stroke="none" fill="#f2f1f1" fill-rule="evenodd"></path><path id="path3" d="M103.811 23.995 C 103.570 24.068,102.942 24.455,102.415 24.855 C 101.889 25.256,101.241 25.742,100.976 25.935 C 100.711 26.128,100.027 26.703,99.455 27.213 C 98.884 27.722,97.854 28.599,97.167 29.162 C 96.479 29.725,94.867 31.069,93.583 32.151 C 91.513 33.895,90.239 34.800,90.084 34.637 C 89.882 34.425,88.843 31.928,88.681 31.265 C 88.571 30.814,88.340 30.265,88.166 30.044 C 87.992 29.824,87.802 29.319,87.742 28.922 C 87.601 27.984,87.050 27.050,86.791 27.309 C 86.652 27.448,86.694 27.660,86.950 28.123 C 87.141 28.468,87.352 29.010,87.420 29.329 C 87.488 29.647,87.758 30.331,88.021 30.849 C 88.285 31.367,88.500 31.945,88.500 32.133 C 88.500 32.321,88.725 33.037,89.000 33.724 C 89.275 34.410,89.500 35.200,89.500 35.479 C 89.500 35.757,89.677 36.246,89.894 36.565 C 90.110 36.885,90.413 37.647,90.567 38.260 C 90.721 38.873,90.983 39.646,91.149 39.979 C 91.315 40.311,91.543 40.958,91.655 41.417 C 91.767 41.875,91.994 42.475,92.159 42.750 C 92.324 43.025,92.553 43.550,92.668 43.917 C 93.027 45.062,93.104 45.078,94.142 44.206 C 94.658 43.772,96.105 42.554,97.357 41.500 C 98.610 40.446,99.923 39.347,100.275 39.059 C 103.707 36.252,104.289 35.766,105.237 34.917 C 105.836 34.380,107.401 33.140,108.305 32.486 L 108.861 32.084 109.341 32.621 C 109.609 32.920,109.939 33.586,110.085 34.121 C 110.230 34.650,110.501 35.533,110.688 36.083 C 110.876 36.633,111.209 37.748,111.429 38.560 L 111.830 40.036 111.476 40.533 C 111.282 40.806,110.814 41.251,110.436 41.521 C 110.059 41.791,109.337 42.382,108.833 42.833 C 107.811 43.748,105.714 45.508,104.227 46.699 C 103.690 47.129,102.901 47.804,102.474 48.199 C 102.047 48.594,101.260 49.265,100.724 49.691 C 100.188 50.117,99.150 51.007,98.417 51.669 C 97.683 52.332,96.840 53.022,96.542 53.203 C 95.919 53.582,95.836 54.111,96.274 54.917 C 96.423 55.192,96.717 55.979,96.928 56.667 C 97.138 57.354,97.420 58.254,97.555 58.667 C 99.143 63.524,99.083 63.247,99.083 65.750 C 99.083 69.286,98.867 69.591,92.999 74.333 C 92.602 74.654,91.484 75.594,90.514 76.422 C 89.544 77.250,88.464 78.138,88.114 78.397 C 87.764 78.656,86.893 79.403,86.178 80.059 C 85.463 80.714,84.249 81.758,83.480 82.378 C 82.712 82.999,81.587 83.936,80.980 84.462 C 80.374 84.987,79.436 85.767,78.897 86.196 C 78.358 86.625,77.517 87.353,77.029 87.815 C 76.541 88.277,75.536 89.126,74.797 89.702 C 74.058 90.279,73.220 90.957,72.935 91.209 C 71.700 92.304,71.173 92.754,69.902 93.804 C 69.160 94.416,68.267 95.142,67.917 95.417 C 67.567 95.692,67.039 96.142,66.743 96.417 C 65.723 97.365,65.114 97.875,63.417 99.202 C 62.867 99.632,61.900 100.472,61.268 101.068 L 60.119 102.152 60.222 102.903 C 60.279 103.317,60.481 104.089,60.671 104.619 C 60.861 105.149,61.168 106.141,61.354 106.823 C 61.539 107.505,61.792 108.258,61.915 108.497 C 62.039 108.736,62.257 109.378,62.401 109.924 C 62.544 110.470,62.850 111.286,63.081 111.737 C 63.311 112.188,63.501 112.713,63.502 112.903 C 63.503 113.094,63.688 113.647,63.914 114.131 C 64.139 114.616,64.404 115.311,64.502 115.675 C 64.937 117.289,66.084 118.399,67.311 118.395 C 68.361 118.391,68.880 118.097,70.981 116.321 C 71.199 116.137,71.592 115.875,71.853 115.740 C 72.114 115.605,72.985 114.852,73.789 114.067 C 74.592 113.281,75.475 112.543,75.750 112.427 C 76.025 112.310,76.861 111.639,77.608 110.935 C 78.354 110.231,79.254 109.443,79.608 109.184 C 79.961 108.924,80.597 108.383,81.020 107.981 C 81.444 107.579,82.073 107.025,82.417 106.750 C 83.454 105.923,84.172 105.316,85.748 103.932 C 86.574 103.207,87.534 102.407,87.882 102.154 C 88.229 101.900,89.092 101.171,89.798 100.532 C 90.505 99.894,91.533 99.011,92.083 98.570 C 92.633 98.129,94.148 96.864,95.449 95.759 C 99.416 92.391,101.296 90.810,102.993 89.417 C 105.211 87.596,108.704 84.654,109.917 83.587 C 110.467 83.102,111.404 82.321,112.000 81.850 C 112.596 81.380,113.496 80.630,114.000 80.185 C 114.504 79.739,115.319 79.047,115.812 78.646 C 119.962 75.265,121.270 73.926,121.645 72.673 C 121.970 71.587,121.875 68.393,121.486 67.333 C 121.301 66.829,120.995 65.933,120.807 65.342 C 120.618 64.751,120.354 64.099,120.219 63.893 C 120.085 63.688,119.874 63.121,119.752 62.635 C 119.629 62.148,119.381 61.337,119.200 60.833 C 118.696 59.432,117.821 56.687,117.565 55.704 C 117.439 55.220,117.230 54.658,117.101 54.454 C 116.972 54.250,116.815 53.821,116.752 53.500 C 116.689 53.179,116.426 52.429,116.169 51.833 C 115.633 50.594,115.170 49.219,114.580 47.115 C 114.353 46.308,114.096 45.513,114.008 45.348 C 113.920 45.184,113.693 44.471,113.503 43.763 C 113.314 43.055,113.041 42.297,112.897 42.077 C 112.754 41.858,112.593 41.207,112.541 40.631 C 112.489 40.055,112.272 39.209,112.058 38.750 C 111.845 38.292,111.669 37.746,111.668 37.538 C 111.667 37.329,111.510 36.729,111.318 36.204 C 111.126 35.679,110.821 34.688,110.640 34.000 C 110.459 33.313,110.132 32.487,109.912 32.167 C 109.693 31.846,109.403 31.270,109.268 30.887 C 109.133 30.504,108.910 30.016,108.772 29.803 C 108.635 29.591,108.432 29.042,108.322 28.583 C 108.212 28.125,107.991 27.525,107.831 27.250 C 107.671 26.975,107.447 26.459,107.333 26.103 C 106.822 24.504,105.246 23.561,103.811 23.995 M65.614 24.275 C 65.469 24.420,65.638 25.088,66.050 26.000 C 66.236 26.412,66.483 27.150,66.599 27.639 C 66.800 28.488,67.443 29.663,67.708 29.666 C 67.953 29.668,67.827 29.102,67.432 28.428 C 67.212 28.052,66.952 27.318,66.856 26.797 C 66.710 26.006,65.954 24.167,65.775 24.167 C 65.746 24.167,65.674 24.215,65.614 24.275 M241.750 42.768 C 240.695 43.027,239.629 43.750,239.077 44.582 L 238.500 45.451 238.500 64.203 C 238.500 82.240,238.512 82.970,238.810 83.353 C 238.981 83.571,239.172 83.914,239.235 84.115 C 239.680 85.536,240.595 85.723,246.707 85.640 L 251.417 85.575 252.513 85.038 C 253.116 84.742,253.726 84.500,253.868 84.500 C 254.010 84.500,254.224 84.382,254.344 84.237 C 254.464 84.092,254.942 83.783,255.406 83.550 C 255.870 83.317,256.387 83.004,256.555 82.855 C 257.242 82.244,258.494 80.908,258.497 80.782 C 258.499 80.708,258.717 80.370,258.983 80.032 C 259.249 79.694,259.520 79.229,259.586 79.000 C 259.651 78.771,259.859 78.415,260.047 78.210 C 261.555 76.561,261.724 53.307,260.246 50.671 C 260.117 50.439,259.848 49.913,259.649 49.500 C 259.449 49.087,259.220 48.724,259.139 48.693 C 259.058 48.662,258.848 48.356,258.673 48.013 C 257.698 46.102,254.482 43.859,252.186 43.490 C 251.601 43.396,250.888 43.194,250.603 43.042 C 250.091 42.770,242.681 42.541,241.750 42.768 M322.167 42.772 C 320.496 43.360,319.797 43.881,319.318 44.893 L 318.834 45.917 318.833 64.276 L 318.833 82.635 319.292 83.546 C 319.806 84.569,320.554 85.277,321.368 85.510 C 322.147 85.733,336.580 85.712,337.394 85.486 C 339.847 84.805,340.343 81.024,338.126 79.901 C 337.827 79.750,337.444 79.504,337.274 79.355 C 337.005 79.118,336.257 79.076,331.445 79.028 C 328.365 78.996,325.794 78.901,325.627 78.812 C 325.348 78.663,325.332 78.298,325.373 73.286 L 325.417 67.920 326.000 67.635 C 326.489 67.396,327.119 67.348,329.893 67.341 C 335.481 67.328,337.034 66.439,336.567 63.520 C 336.242 61.484,334.995 61.010,329.947 61.004 C 326.393 61.000,325.788 60.923,325.461 60.433 C 325.317 60.217,325.293 50.418,325.435 49.887 C 325.595 49.290,325.848 49.262,331.863 49.171 C 338.374 49.072,338.005 49.148,339.050 47.704 C 340.153 46.180,339.580 44.340,337.667 43.265 L 336.750 42.750 329.583 42.717 C 325.642 42.699,322.304 42.724,322.167 42.772 M344.143 43.060 C 342.852 43.747,342.678 43.896,342.419 44.542 C 341.838 45.996,342.180 47.531,343.290 48.441 L 344.074 49.083 347.279 49.167 C 349.593 49.227,350.545 49.310,350.701 49.467 C 350.874 49.640,350.933 53.014,351.000 66.383 L 351.083 83.083 351.556 83.872 C 353.032 86.336,355.475 86.322,357.142 83.841 C 357.391 83.469,357.424 81.865,357.500 66.480 C 357.546 57.156,357.646 49.465,357.722 49.389 C 357.798 49.312,359.336 49.212,361.139 49.166 C 364.588 49.079,364.769 49.040,365.515 48.223 C 367.273 46.298,366.947 44.444,364.633 43.208 L 363.618 42.667 354.251 42.667 L 344.883 42.667 344.143 43.060 M166.250 43.072 C 165.883 43.195,165.110 43.383,164.532 43.491 C 161.481 44.060,159.349 45.943,157.633 49.583 L 157.083 50.750 157.083 64.167 L 157.083 77.583 157.452 78.333 C 157.655 78.746,157.939 79.421,158.084 79.833 C 158.502 81.025,160.279 83.333,160.779 83.333 C 160.859 83.333,161.185 83.547,161.504 83.809 C 161.822 84.070,162.683 84.576,163.417 84.934 L 164.750 85.583 167.333 85.583 C 169.912 85.583,169.919 85.582,171.013 85.042 C 171.616 84.744,172.183 84.500,172.274 84.500 C 172.364 84.500,172.653 84.275,172.917 84.000 C 173.180 83.725,173.500 83.500,173.628 83.500 C 174.748 83.500,176.993 79.853,177.425 77.333 C 177.779 75.268,177.718 74.560,177.078 73.322 C 175.984 71.207,171.527 72.526,171.504 74.972 C 171.491 76.305,169.961 78.640,168.929 78.899 C 166.502 79.508,164.369 78.572,163.705 76.605 C 163.325 75.478,163.259 53.271,163.632 52.039 C 164.564 48.964,169.323 48.434,170.718 51.250 C 171.193 52.210,171.430 52.951,171.589 53.972 C 172.092 57.218,176.801 57.292,177.486 54.065 C 178.412 49.703,174.771 44.305,170.365 43.506 C 169.798 43.403,169.024 43.210,168.646 43.076 C 167.807 42.780,167.128 42.779,166.250 43.072 M192.038 43.078 C 191.646 43.200,190.821 43.385,190.204 43.489 C 189.003 43.690,188.167 43.966,188.167 44.161 C 188.167 44.227,187.867 44.370,187.500 44.480 C 187.133 44.590,186.605 44.883,186.325 45.132 C 184.576 46.687,183.323 48.182,183.084 49.000 C 183.017 49.229,182.824 49.646,182.654 49.926 C 182.032 50.955,181.989 52.250,182.037 68.368 L 182.083 83.986 182.818 84.734 C 184.494 86.442,187.237 85.728,187.911 83.410 C 188.116 82.705,188.167 81.504,188.168 77.308 C 188.169 69.650,187.740 70.266,193.115 70.200 L 197.217 70.150 197.761 70.677 L 198.304 71.204 198.380 77.060 C 198.464 83.611,198.514 83.968,199.473 84.864 C 201.165 86.445,204.028 85.524,204.501 83.245 C 204.626 82.645,204.663 77.703,204.623 67.313 C 204.560 51.115,204.574 51.371,203.694 49.752 C 203.496 49.387,203.333 49.007,203.333 48.908 C 203.333 48.808,203.071 48.432,202.750 48.072 C 202.429 47.712,202.167 47.348,202.167 47.265 C 202.167 46.951,199.886 44.937,199.167 44.616 C 198.754 44.432,198.229 44.146,198.000 43.980 C 197.771 43.814,197.058 43.597,196.417 43.497 C 195.775 43.397,194.929 43.207,194.536 43.075 C 193.670 42.782,192.982 42.783,192.038 43.078 M212.516 43.297 C 211.651 43.664,211.342 43.904,210.889 44.563 L 210.329 45.376 210.373 64.396 L 210.417 83.417 210.975 84.215 C 212.472 86.357,215.123 86.132,216.468 83.750 C 216.719 83.304,216.756 82.423,216.801 75.638 C 216.861 66.618,216.519 67.583,219.650 67.583 C 222.246 67.583,223.352 67.828,223.782 68.496 C 223.931 68.728,224.150 68.975,224.269 69.046 C 224.725 69.318,225.610 73.104,225.835 75.741 C 225.940 76.980,226.160 78.318,226.351 78.885 C 226.533 79.427,226.750 80.634,226.832 81.566 C 227.058 84.140,227.828 85.354,229.382 85.587 C 232.497 86.054,233.865 83.641,232.916 79.352 C 232.782 78.746,232.562 77.125,232.427 75.750 C 232.291 74.375,232.069 72.912,231.932 72.500 C 231.795 72.087,231.601 71.037,231.501 70.167 C 231.365 68.992,231.217 68.433,230.926 68.000 C 230.710 67.679,230.481 67.229,230.416 67.000 C 230.352 66.771,230.114 66.261,229.888 65.867 C 229.402 65.020,229.479 64.279,230.104 63.787 C 230.322 63.616,230.500 63.383,230.500 63.269 C 230.500 63.156,230.725 62.896,231.000 62.693 C 231.275 62.490,231.500 62.237,231.500 62.131 C 231.500 62.025,231.658 61.770,231.850 61.565 C 234.140 59.128,234.170 51.245,231.900 48.824 C 231.680 48.590,231.500 48.333,231.500 48.253 C 231.500 48.173,231.256 47.865,230.958 47.568 C 230.660 47.272,230.229 46.802,230.000 46.525 C 229.595 46.035,227.918 44.667,227.722 44.667 C 227.668 44.667,227.191 44.446,226.660 44.177 C 226.130 43.907,225.221 43.602,224.640 43.499 C 224.059 43.397,223.213 43.205,222.761 43.073 C 221.095 42.587,213.813 42.747,212.516 43.297 M274.932 43.080 C 274.574 43.208,273.770 43.398,273.145 43.504 C 272.520 43.609,271.838 43.828,271.629 43.990 C 271.421 44.152,270.974 44.375,270.637 44.485 C 269.897 44.726,267.966 46.586,267.493 47.514 C 267.310 47.873,267.098 48.167,267.022 48.167 C 266.946 48.167,266.752 48.485,266.591 48.875 C 266.430 49.265,266.137 49.952,265.941 50.403 C 265.585 51.219,265.583 51.297,265.583 64.320 L 265.583 77.417 265.944 78.000 C 266.143 78.321,266.360 78.879,266.427 79.240 C 266.494 79.602,266.707 80.059,266.900 80.256 C 267.092 80.454,267.393 80.889,267.568 81.224 C 268.098 82.240,270.343 84.174,271.447 84.566 C 271.797 84.690,272.383 84.970,272.750 85.188 C 273.909 85.876,278.174 85.786,279.680 85.042 C 280.283 84.744,280.864 84.500,280.972 84.500 C 281.079 84.500,281.301 84.366,281.464 84.202 C 281.628 84.038,282.028 83.740,282.354 83.539 C 283.014 83.131,284.667 81.448,284.667 81.183 C 284.667 81.090,284.816 80.874,284.998 80.704 C 285.181 80.534,285.477 79.987,285.656 79.489 C 285.835 78.991,286.091 78.283,286.223 77.917 C 286.459 77.267,286.580 76.029,286.526 74.816 C 286.484 73.854,285.585 72.819,284.460 72.438 C 282.278 71.698,280.577 72.972,280.108 75.697 C 279.702 78.056,278.259 79.108,275.615 78.975 C 274.289 78.908,273.962 78.727,272.832 77.441 C 272.017 76.513,272.008 76.361,272.008 64.250 C 272.008 51.935,272.000 52.045,272.922 50.943 C 275.243 48.166,279.678 49.356,280.135 52.879 C 280.641 56.776,284.211 57.881,286.184 54.750 C 286.587 54.110,286.617 51.597,286.233 50.583 C 286.094 50.217,285.828 49.485,285.641 48.958 C 285.455 48.431,285.237 48.000,285.156 48.000 C 285.075 48.000,284.886 47.756,284.736 47.458 C 284.010 46.016,280.454 43.500,279.141 43.500 C 278.904 43.500,278.241 43.350,277.667 43.167 C 276.452 42.779,275.833 42.759,274.932 43.080 M292.904 43.343 C 291.998 43.726,291.658 43.966,291.439 44.379 C 291.282 44.675,291.045 45.104,290.912 45.333 C 290.706 45.690,290.671 48.433,290.669 64.276 L 290.667 82.803 291.110 83.658 C 292.254 85.862,294.443 86.347,296.097 84.762 C 297.165 83.739,297.166 83.727,297.169 75.584 C 297.171 71.550,297.227 68.169,297.294 68.069 C 297.531 67.720,298.563 67.500,299.970 67.500 C 304.519 67.500,305.544 68.622,306.072 74.174 C 306.216 75.690,306.445 77.340,306.579 77.840 C 306.714 78.341,306.912 79.688,307.019 80.833 C 307.435 85.307,310.246 87.138,312.792 84.592 L 313.667 83.717 313.667 81.877 C 313.667 80.471,313.571 79.668,313.264 78.477 C 313.042 77.619,312.781 75.979,312.685 74.832 C 312.588 73.686,312.391 72.373,312.247 71.916 C 312.103 71.458,311.883 70.388,311.759 69.539 C 311.587 68.371,311.364 67.650,310.842 66.582 C 310.102 65.066,310.083 64.217,310.779 63.644 C 311.189 63.307,312.249 61.698,313.363 59.724 C 313.987 58.620,314.400 55.328,314.107 53.796 C 313.962 53.037,313.793 52.117,313.730 51.750 C 313.611 51.051,312.683 49.153,312.181 48.583 C 312.019 48.400,311.730 47.987,311.537 47.667 C 311.040 46.838,308.658 44.667,308.247 44.667 C 308.179 44.667,307.685 44.443,307.148 44.170 C 306.610 43.897,305.701 43.597,305.127 43.503 C 304.553 43.410,303.715 43.221,303.265 43.083 C 302.629 42.889,301.519 42.835,298.265 42.839 L 294.083 42.844 292.904 43.343 M377.038 43.078 C 376.646 43.200,375.821 43.388,375.204 43.494 C 374.588 43.600,373.852 43.823,373.570 43.988 C 373.287 44.154,372.786 44.378,372.455 44.487 C 372.100 44.604,371.388 45.153,370.719 45.825 C 368.552 47.998,367.975 48.850,367.267 50.917 L 366.754 52.417 366.700 67.417 C 366.660 78.551,366.697 82.588,366.842 83.082 C 367.630 85.764,370.607 86.577,372.258 84.563 C 373.118 83.513,373.151 83.226,373.159 76.657 C 373.165 71.956,373.210 70.838,373.403 70.574 C 373.652 70.232,380.009 69.980,381.757 70.242 C 383.162 70.453,383.072 70.022,383.173 77.028 C 383.234 81.299,383.324 83.381,383.459 83.667 C 384.730 86.352,388.297 86.289,389.437 83.560 C 389.800 82.691,389.761 53.033,389.395 52.083 C 389.254 51.717,389.028 50.967,388.893 50.417 C 388.112 47.241,384.596 44.006,381.369 43.494 C 380.754 43.396,379.929 43.207,379.536 43.075 C 378.670 42.782,377.982 42.783,377.038 43.078 M364.333 43.592 C 366.400 44.364,366.692 46.740,364.889 48.116 C 364.279 48.582,364.272 48.583,361.061 48.667 C 358.266 48.739,357.806 48.789,357.548 49.048 C 357.267 49.328,357.245 50.305,357.167 66.158 L 357.083 82.971 356.577 83.692 C 355.487 85.242,354.147 85.594,352.881 84.663 C 351.515 83.659,351.596 84.750,351.501 66.046 L 351.417 49.509 351.037 49.130 C 350.675 48.767,350.510 48.746,347.443 48.667 L 344.229 48.583 343.656 48.108 C 342.308 46.988,342.321 44.613,343.680 43.910 C 345.098 43.176,344.996 43.183,354.417 43.217 C 363.044 43.249,363.455 43.264,364.333 43.592 M251.455 43.728 C 254.910 44.456,257.706 46.760,259.571 50.417 C 260.439 52.120,260.490 52.883,260.490 64.250 C 260.490 75.094,260.419 76.374,259.755 77.622 C 259.523 78.058,259.333 78.470,259.333 78.539 C 259.333 79.267,256.321 82.571,255.083 83.200 C 254.717 83.386,254.281 83.658,254.115 83.804 C 253.949 83.950,253.424 84.198,252.949 84.355 C 252.473 84.512,251.783 84.756,251.417 84.896 C 250.875 85.104,249.851 85.153,245.955 85.159 L 241.160 85.167 240.488 84.722 C 240.032 84.420,239.673 83.981,239.367 83.347 L 238.917 82.417 238.917 64.167 L 238.917 45.917 239.417 45.001 C 239.932 44.058,240.399 43.716,241.500 43.478 C 242.525 43.256,250.119 43.447,251.455 43.728 M337.547 43.716 C 339.018 44.399,339.401 46.562,338.271 47.808 C 337.436 48.728,337.358 48.740,331.195 48.831 C 325.776 48.912,325.460 48.934,325.236 49.240 C 324.820 49.810,324.895 60.499,325.318 61.023 C 325.634 61.413,325.675 61.418,329.860 61.510 C 334.423 61.611,334.608 61.646,335.486 62.562 C 336.368 63.483,336.413 64.647,335.606 65.664 C 334.808 66.669,334.691 66.693,329.944 66.812 L 325.804 66.917 325.402 67.384 L 325.000 67.852 325.003 73.301 C 325.004 76.298,325.062 78.839,325.131 78.948 C 325.476 79.491,326.259 79.579,331.500 79.664 C 336.685 79.749,336.760 79.755,337.583 80.167 C 339.288 81.019,339.438 83.416,337.862 84.617 L 337.141 85.167 329.264 85.167 L 321.388 85.167 320.632 84.578 C 319.431 83.642,319.476 84.499,319.533 63.750 C 319.592 42.438,319.418 44.371,321.333 43.709 C 322.822 43.195,336.437 43.201,337.547 43.716 M169.347 43.733 C 173.788 44.454,177.050 48.191,177.074 52.583 C 177.084 54.582,177.049 54.689,176.118 55.498 C 174.443 56.953,172.410 55.808,171.952 53.154 C 171.082 48.112,164.987 47.140,163.149 51.750 L 162.750 52.750 162.750 64.250 L 162.750 75.750 163.145 76.731 C 164.880 81.033,171.327 80.250,171.916 75.667 C 172.240 73.150,174.315 71.957,176.184 73.214 C 177.730 74.255,177.323 78.509,175.433 81.054 C 174.921 81.743,173.510 83.167,173.339 83.167 C 173.259 83.167,172.968 83.355,172.694 83.586 C 169.530 86.248,163.259 85.519,160.200 82.133 C 159.395 81.242,158.675 80.070,158.326 79.083 C 158.165 78.625,157.894 77.987,157.724 77.667 C 157.433 77.114,157.417 76.404,157.417 64.167 L 157.417 51.250 157.958 50.169 C 158.256 49.575,158.501 49.012,158.501 48.919 C 158.505 48.511,160.158 46.372,160.917 45.794 C 163.435 43.873,166.139 43.213,169.347 43.733 M195.333 43.733 C 199.408 44.400,202.398 47.172,203.802 51.583 C 204.123 52.590,204.320 80.850,204.020 82.776 C 203.687 84.917,201.661 85.870,200.028 84.655 C 198.932 83.839,198.942 83.904,198.841 76.984 C 198.724 68.942,199.279 69.667,193.242 69.667 C 187.183 69.667,187.701 68.983,187.625 77.083 C 187.562 83.735,187.567 83.704,186.455 84.664 C 185.503 85.487,184.172 85.367,183.138 84.364 L 182.417 83.663 182.417 67.707 L 182.417 51.750 182.780 51.000 C 182.980 50.587,183.337 49.837,183.574 49.333 C 185.588 45.050,190.139 42.883,195.333 43.733 M223.500 43.738 C 230.519 44.762,234.813 52.132,232.441 59.082 C 232.097 60.090,231.670 61.070,231.491 61.259 C 231.313 61.449,231.167 61.665,231.167 61.738 C 231.167 61.812,230.698 62.401,230.125 63.047 C 228.842 64.494,228.753 65.090,229.625 66.406 C 229.923 66.856,230.167 67.336,230.167 67.472 C 230.167 67.609,230.358 68.047,230.592 68.446 C 230.936 69.034,231.061 69.586,231.253 71.377 C 231.383 72.590,231.571 73.846,231.670 74.167 C 231.770 74.487,231.922 75.500,232.008 76.417 C 232.095 77.333,232.290 79.070,232.443 80.275 C 232.796 83.074,232.656 83.738,231.535 84.595 C 229.754 85.955,227.521 84.602,227.253 82.000 C 226.975 79.302,226.805 78.179,226.574 77.518 C 226.434 77.115,226.211 75.615,226.080 74.183 C 225.572 68.646,224.252 67.038,220.080 66.873 C 215.992 66.711,216.168 66.318,216.160 75.594 C 216.153 82.803,216.147 82.928,215.785 83.665 C 214.785 85.698,212.419 85.692,211.263 83.654 L 210.750 82.750 210.702 64.750 C 210.669 52.363,210.710 46.525,210.832 46.030 C 211.142 44.780,211.725 44.043,212.624 43.767 C 213.716 43.431,221.260 43.411,223.500 43.738 M278.891 43.861 C 279.364 43.962,280.011 44.222,280.330 44.439 C 280.650 44.656,280.995 44.833,281.099 44.833 C 281.475 44.833,284.327 47.251,284.331 47.574 C 284.332 47.661,284.517 47.999,284.741 48.324 C 285.739 49.772,286.242 53.156,285.648 54.420 C 284.157 57.591,281.407 56.413,280.431 52.184 C 279.404 47.734,272.289 47.897,271.751 52.383 C 271.530 54.232,271.735 76.723,271.977 77.149 C 274.077 80.840,279.395 80.225,280.491 76.164 C 281.049 74.094,281.438 73.342,282.092 73.069 C 287.055 70.995,287.258 79.145,282.337 82.884 C 281.831 83.269,281.342 83.673,281.250 83.784 C 281.092 83.974,279.411 84.654,278.178 85.026 C 277.278 85.298,273.673 85.137,273.167 84.802 C 272.938 84.651,272.419 84.440,272.014 84.333 C 270.893 84.037,268.354 81.826,267.708 80.583 C 267.566 80.308,267.351 80.008,267.232 79.917 C 267.113 79.825,266.865 79.182,266.682 78.488 C 266.498 77.794,266.269 77.020,266.174 76.769 C 266.059 76.467,266.000 72.220,266.000 64.266 L 266.000 52.221 266.476 50.652 C 268.079 45.374,273.109 42.622,278.891 43.861 M304.000 43.739 C 306.488 44.104,309.332 45.687,310.750 47.498 C 311.117 47.966,311.613 48.589,311.853 48.883 C 312.092 49.176,312.346 49.604,312.415 49.833 C 312.485 50.063,312.716 50.550,312.929 50.917 C 313.896 52.586,313.823 57.670,312.804 59.728 C 312.119 61.111,312.229 60.941,310.888 62.690 C 309.297 64.767,309.303 64.721,310.349 66.918 C 311.100 68.494,311.247 68.975,311.444 70.495 C 311.569 71.460,311.777 72.587,311.907 73.000 C 312.190 73.898,312.281 74.499,312.502 76.942 C 312.594 77.964,312.780 79.113,312.915 79.494 C 313.792 81.982,313.226 84.241,311.550 84.941 C 309.403 85.838,307.776 84.165,307.475 80.750 C 307.386 79.742,307.202 78.242,307.067 77.417 C 306.931 76.592,306.674 74.651,306.494 73.105 C 306.242 70.927,306.088 70.156,305.809 69.688 C 305.373 68.955,304.167 67.667,303.917 67.667 C 303.818 67.667,303.440 67.507,303.077 67.312 C 301.496 66.463,297.318 66.765,296.937 67.757 C 296.880 67.905,296.833 71.303,296.833 75.306 C 296.833 83.318,296.825 83.390,295.824 84.362 C 294.345 85.797,292.057 85.195,291.483 83.220 C 291.290 82.553,291.250 79.309,291.250 64.167 L 291.250 45.917 291.637 45.062 C 292.019 44.217,292.527 43.838,293.583 43.611 C 294.459 43.422,302.516 43.521,304.000 43.739 M380.333 43.739 C 384.533 44.355,387.481 47.141,388.724 51.667 L 389.250 53.583 389.250 68.167 L 389.250 82.750 388.737 83.654 C 387.605 85.650,385.229 85.700,384.250 83.748 C 383.940 83.130,383.911 82.656,383.833 76.970 C 383.739 70.031,383.747 70.073,382.402 69.787 C 381.293 69.551,373.598 69.711,373.278 69.976 C 372.751 70.414,372.669 71.381,372.668 77.132 C 372.667 83.326,372.668 83.315,371.687 84.456 C 370.492 85.847,368.133 85.164,367.581 83.268 C 367.194 81.937,367.302 52.963,367.700 51.417 C 368.007 50.222,368.832 48.455,369.321 47.948 C 369.514 47.747,369.951 47.254,370.293 46.851 C 370.818 46.233,371.410 45.752,372.400 45.136 C 374.610 43.762,377.284 43.291,380.333 43.739 M191.548 49.065 C 189.931 49.593,189.080 50.333,188.174 51.998 C 187.768 52.743,187.764 52.795,187.707 57.953 C 187.629 65.017,187.186 64.498,193.291 64.499 L 197.499 64.500 198.166 63.897 L 198.833 63.295 198.833 58.467 L 198.833 53.639 198.314 52.445 C 197.093 49.639,194.206 48.197,191.548 49.065 M216.756 49.229 C 216.194 49.791,216.137 50.461,216.197 55.780 C 216.260 61.399,216.234 61.313,218.015 61.570 C 221.278 62.041,224.636 61.173,225.972 59.513 C 226.308 59.095,226.699 58.624,226.840 58.467 C 228.753 56.325,227.560 51.500,224.688 49.766 C 222.925 48.702,217.641 48.344,216.756 49.229 M244.913 49.170 C 244.463 49.668,244.299 78.251,244.742 78.928 C 245.501 80.086,250.685 79.762,252.446 78.446 C 253.640 77.553,253.925 77.187,254.575 75.708 L 255.167 74.363 255.167 64.234 C 255.167 54.584,255.151 54.073,254.846 53.428 C 254.670 53.055,254.411 52.469,254.271 52.126 C 253.844 51.075,252.893 50.099,251.700 49.486 C 250.208 48.721,245.518 48.502,244.913 49.170 M297.553 48.994 C 296.869 49.283,296.833 49.594,296.833 55.202 C 296.833 61.216,296.826 61.177,297.963 61.493 C 298.739 61.708,300.657 61.713,302.470 61.505 C 308.771 60.780,310.342 52.340,304.709 49.479 L 303.602 48.917 300.760 48.879 C 299.196 48.858,297.753 48.910,297.553 48.994 M376.750 49.009 C 375.482 49.383,374.324 50.234,373.816 51.167 C 373.642 51.487,373.330 51.962,373.124 52.220 C 372.758 52.681,372.749 52.796,372.694 57.824 C 372.616 65.030,372.189 64.495,378.018 64.498 C 382.608 64.501,382.916 64.453,383.446 63.653 L 383.864 63.021 383.794 58.136 C 383.716 52.715,383.636 52.219,382.645 51.003 C 381.219 49.253,378.753 48.419,376.750 49.009 M251.238 49.932 C 252.292 50.390,252.692 50.665,253.083 51.202 C 253.811 52.200,253.779 52.139,254.328 53.554 L 254.833 54.859 254.829 64.138 L 254.825 73.417 254.288 74.943 C 253.604 76.885,252.214 78.437,250.795 78.844 C 249.973 79.080,245.444 79.044,245.200 78.800 C 244.979 78.579,244.929 50.625,245.149 49.833 C 245.400 48.927,249.060 48.986,251.238 49.932 M195.151 49.849 C 195.755 50.132,196.442 50.571,196.677 50.824 C 196.911 51.077,197.192 51.314,197.301 51.351 C 197.949 51.567,198.329 54.283,198.331 58.716 L 198.333 63.016 197.875 63.419 L 197.417 63.823 193.237 63.828 L 189.058 63.833 188.654 63.403 L 188.250 62.973 188.252 58.361 C 188.254 51.796,188.549 50.937,191.167 49.865 C 192.835 49.182,193.720 49.178,195.151 49.849 M223.489 49.807 C 226.442 50.993,227.591 53.283,226.984 56.770 C 226.501 59.543,224.067 61.000,219.914 61.000 L 217.207 61.000 217.013 60.532 C 216.717 59.816,216.836 49.981,217.145 49.609 C 217.587 49.078,222.019 49.216,223.489 49.807 M304.066 49.847 C 308.763 51.819,308.940 58.326,304.354 60.435 L 303.125 61.000 300.521 60.995 C 296.898 60.987,297.261 61.606,297.202 55.326 L 297.153 50.165 297.569 49.749 C 298.262 49.057,302.328 49.118,304.066 49.847 M380.388 49.926 C 381.651 50.476,381.799 50.594,382.417 51.541 L 383.083 52.563 383.134 57.823 C 383.177 62.252,383.146 63.136,382.939 63.417 C 382.619 63.852,373.950 63.942,373.436 63.516 C 372.932 63.098,373.108 52.606,373.625 52.244 C 373.831 52.099,374.000 51.874,374.000 51.743 C 374.000 51.321,375.295 50.263,376.372 49.805 C 377.857 49.173,378.717 49.199,380.388 49.926 M8.216 72.092 C 8.268 72.602,8.458 73.267,8.637 73.571 C 8.816 73.874,9.048 74.521,9.153 75.008 C 9.257 75.494,9.484 76.123,9.657 76.404 C 9.830 76.686,10.091 77.379,10.237 77.945 C 10.555 79.177,11.386 80.582,11.469 80.029 C 11.498 79.838,11.291 79.211,11.011 78.635 C 10.730 78.059,10.500 77.430,10.500 77.236 C 10.500 77.042,10.325 76.553,10.111 76.150 C 9.897 75.747,9.671 75.192,9.608 74.917 C 9.324 73.677,8.441 71.167,8.289 71.167 C 8.184 71.167,8.156 71.515,8.216 72.092 " stroke="none" fill="#4da5dd" fill-rule="evenodd"></path><path id="path4" d="M59.791 16.404 C 59.127 16.641,58.342 17.189,57.560 17.958 C 57.039 18.471,55.637 19.664,52.472 22.286 C 51.342 23.223,49.098 25.098,47.486 26.453 C 45.875 27.808,44.232 29.179,43.835 29.500 C 42.592 30.505,41.590 31.357,41.415 31.557 C 41.223 31.777,39.876 32.872,38.985 33.532 C 38.656 33.776,38.076 34.263,37.696 34.613 C 36.732 35.502,35.975 36.143,34.303 37.488 C 33.508 38.128,32.420 39.068,31.887 39.576 C 31.354 40.084,30.869 40.500,30.809 40.500 C 30.706 40.500,29.680 41.341,27.046 43.583 C 26.400 44.133,25.362 44.996,24.738 45.500 C 24.115 46.004,23.284 46.717,22.891 47.083 C 22.498 47.450,21.785 48.050,21.307 48.417 C 20.829 48.783,19.308 50.048,17.927 51.228 C 16.546 52.407,15.154 53.568,14.833 53.807 C 14.512 54.046,13.463 54.923,12.500 55.756 C 11.537 56.589,10.218 57.690,9.569 58.204 C 6.756 60.428,5.550 63.814,6.641 66.427 C 6.829 66.880,7.065 67.587,7.164 68.000 C 7.570 69.689,8.500 71.856,8.500 71.114 C 8.500 70.907,7.937 69.215,7.821 69.072 C 7.741 68.974,7.562 68.404,7.424 67.806 C 7.285 67.208,7.052 66.434,6.907 66.086 C 6.555 65.243,6.536 63.236,6.875 62.581 C 7.016 62.307,7.215 61.774,7.317 61.395 C 7.523 60.629,8.949 59.060,10.479 57.917 C 10.969 57.550,11.467 57.158,11.585 57.046 C 12.092 56.566,14.706 54.352,15.623 53.627 C 16.172 53.193,17.006 52.480,17.475 52.044 C 17.944 51.607,18.677 50.987,19.104 50.667 C 19.879 50.085,22.128 48.225,23.092 47.368 C 23.372 47.120,23.887 46.692,24.238 46.417 C 25.152 45.699,27.296 43.926,28.126 43.202 C 28.917 42.511,29.379 42.126,30.195 41.473 C 30.500 41.229,31.623 40.292,32.690 39.390 C 33.757 38.488,35.078 37.395,35.626 36.961 C 36.174 36.526,37.006 35.814,37.475 35.377 C 37.944 34.941,38.678 34.321,39.107 34.000 C 40.304 33.103,42.376 31.338,42.768 30.881 C 42.961 30.656,43.271 30.384,43.456 30.277 C 43.996 29.966,45.501 28.785,46.592 27.814 C 47.649 26.873,51.484 23.647,53.647 21.879 C 55.108 20.686,55.595 20.269,56.750 19.221 C 60.273 16.026,62.463 15.887,63.438 18.798 C 63.583 19.230,63.796 19.696,63.912 19.833 C 64.028 19.971,64.243 20.628,64.391 21.293 C 64.710 22.737,65.550 24.611,65.632 24.062 C 65.661 23.867,65.527 23.267,65.334 22.729 C 65.142 22.190,64.869 21.341,64.728 20.840 C 63.711 17.234,61.937 15.639,59.791 16.404 M81.026 19.617 C 80.187 20.064,79.544 20.567,76.595 23.080 C 75.410 24.090,73.751 25.479,72.908 26.167 C 72.066 26.854,70.689 28.005,69.849 28.724 C 68.576 29.815,68.281 29.998,68.074 29.825 C 67.609 29.440,67.630 29.810,68.136 30.948 C 68.439 31.629,68.679 32.502,68.735 33.129 C 68.787 33.704,68.938 34.385,69.070 34.641 C 69.203 34.897,69.468 35.723,69.661 36.476 C 70.525 39.860,70.902 40.049,73.034 38.161 C 73.886 37.406,74.846 36.619,75.167 36.412 C 75.487 36.204,76.395 35.445,77.183 34.725 C 77.971 34.006,79.013 33.117,79.497 32.750 C 80.478 32.007,81.529 31.126,82.181 30.498 C 82.419 30.270,82.869 29.875,83.181 29.620 C 83.494 29.365,84.235 28.754,84.827 28.262 C 85.713 27.528,85.970 27.394,86.272 27.508 C 86.857 27.731,86.851 27.362,86.238 25.568 C 85.928 24.660,85.554 23.467,85.405 22.917 C 84.666 20.173,82.726 18.711,81.026 19.617 M88.167 37.085 C 86.655 38.314,86.199 38.705,85.117 39.707 C 84.549 40.233,84.034 40.665,83.974 40.665 C 83.865 40.667,81.868 42.312,80.566 43.474 C 80.191 43.809,79.604 44.308,79.262 44.583 C 78.921 44.858,78.479 45.239,78.279 45.428 C 78.080 45.618,77.729 45.893,77.500 46.039 C 75.151 47.537,73.870 49.242,74.324 50.268 C 74.515 50.700,74.784 51.489,74.923 52.023 C 75.061 52.557,75.318 53.239,75.493 53.538 C 75.668 53.838,75.903 54.458,76.014 54.917 C 76.125 55.375,76.326 55.971,76.462 56.240 C 76.597 56.510,76.891 57.373,77.114 58.157 C 77.338 58.942,77.633 59.958,77.771 60.417 C 78.768 63.735,77.683 66.500,74.339 69.158 C 73.746 69.629,72.846 70.380,72.339 70.828 C 70.937 72.065,68.634 74.023,67.923 74.583 C 67.574 74.858,66.942 75.408,66.519 75.804 C 66.096 76.200,65.274 76.913,64.692 77.387 C 64.110 77.862,62.535 79.185,61.192 80.328 C 55.948 84.791,55.175 85.443,54.229 86.193 C 53.690 86.621,52.894 87.296,52.460 87.693 C 52.025 88.091,51.023 88.942,50.233 89.583 C 49.443 90.225,47.736 91.650,46.440 92.750 C 45.144 93.850,43.708 95.050,43.250 95.417 C 42.792 95.783,42.214 96.271,41.966 96.500 C 41.718 96.729,41.202 97.179,40.821 97.500 C 40.440 97.821,39.984 98.217,39.809 98.380 C 39.634 98.543,38.987 98.984,38.370 99.360 C 37.754 99.736,36.738 100.465,36.111 100.980 C 33.667 102.990,32.242 104.208,32.051 104.451 C 31.942 104.590,31.633 104.865,31.364 105.060 C 30.053 106.016,29.007 106.852,28.388 107.438 C 28.013 107.793,27.354 108.383,26.925 108.750 C 26.495 109.117,26.003 109.544,25.831 109.699 C 24.990 110.459,23.779 110.704,22.733 110.325 C 21.795 109.986,21.074 108.569,19.938 104.833 C 19.729 104.146,19.444 103.358,19.303 103.083 C 19.163 102.808,18.957 102.208,18.845 101.750 C 18.733 101.292,18.503 100.692,18.333 100.417 C 18.164 100.142,17.911 99.467,17.772 98.917 C 17.632 98.367,17.364 97.448,17.176 96.875 C 16.987 96.302,16.679 95.365,16.491 94.792 C 16.303 94.219,15.975 93.169,15.761 92.458 C 15.548 91.747,15.291 91.067,15.191 90.946 C 15.090 90.825,14.888 90.257,14.741 89.684 C 14.595 89.111,14.335 88.404,14.165 88.113 C 13.995 87.822,13.736 87.064,13.590 86.428 C 13.444 85.793,13.258 85.193,13.177 85.095 C 13.096 84.997,12.908 84.429,12.759 83.833 C 12.418 82.467,11.624 80.338,11.455 80.335 C 11.296 80.333,11.453 81.005,11.849 82.026 C 12.014 82.453,12.268 83.278,12.412 83.859 C 12.556 84.441,12.816 85.254,12.989 85.667 C 13.162 86.079,13.460 86.885,13.652 87.458 C 13.843 88.031,14.158 88.969,14.350 89.542 C 14.543 90.115,14.880 90.959,15.100 91.419 C 15.320 91.879,15.500 92.386,15.500 92.546 C 15.500 92.707,15.754 93.614,16.065 94.562 C 16.376 95.511,16.685 96.541,16.752 96.852 C 16.819 97.162,17.004 97.679,17.162 98.000 C 17.321 98.321,17.542 98.958,17.653 99.417 C 17.764 99.875,17.970 100.427,18.110 100.643 C 18.250 100.859,18.512 101.570,18.693 102.223 C 18.874 102.875,19.088 103.489,19.168 103.585 C 19.249 103.682,19.471 104.333,19.663 105.031 C 20.928 109.644,22.192 111.243,24.263 110.851 C 25.143 110.684,25.031 110.761,27.772 108.425 C 29.068 107.320,31.302 105.442,32.737 104.250 C 34.173 103.058,35.738 101.758,36.215 101.361 C 37.888 99.971,38.153 99.938,38.488 101.083 C 38.595 101.450,38.863 102.125,39.082 102.583 C 39.302 103.042,39.755 104.317,40.090 105.417 C 40.425 106.517,40.876 107.942,41.091 108.583 C 41.307 109.225,41.562 110.050,41.657 110.417 C 42.122 112.197,43.714 113.833,44.983 113.833 C 45.885 113.833,46.268 113.617,48.000 112.122 C 48.229 111.924,49.092 111.223,49.917 110.563 C 51.566 109.244,52.350 108.574,53.371 107.616 C 53.742 107.267,54.317 106.780,54.648 106.532 C 55.632 105.798,56.866 104.781,57.684 104.030 C 58.107 103.643,58.819 103.066,59.268 102.748 C 59.716 102.431,60.698 101.603,61.449 100.908 C 62.200 100.213,63.175 99.370,63.616 99.034 C 64.918 98.041,65.705 97.382,66.743 96.417 C 67.039 96.142,67.567 95.692,67.917 95.417 C 68.267 95.142,69.160 94.416,69.902 93.804 C 71.173 92.754,71.700 92.304,72.935 91.209 C 73.220 90.957,74.058 90.279,74.797 89.702 C 75.536 89.126,76.541 88.277,77.029 87.815 C 77.517 87.353,78.358 86.625,78.897 86.196 C 79.436 85.767,80.374 84.987,80.980 84.462 C 81.587 83.936,82.712 82.999,83.480 82.378 C 84.249 81.758,85.463 80.714,86.178 80.059 C 86.893 79.403,87.764 78.656,88.114 78.397 C 88.464 78.138,89.544 77.250,90.514 76.422 C 91.484 75.594,92.602 74.654,92.999 74.333 C 98.867 69.591,99.083 69.286,99.083 65.750 C 99.083 63.247,99.143 63.524,97.555 58.667 C 97.420 58.254,97.138 57.354,96.928 56.667 C 96.717 55.979,96.423 55.192,96.274 54.917 C 96.124 54.642,96.002 54.254,96.001 54.056 C 96.000 53.858,95.741 53.303,95.425 52.823 C 95.109 52.343,94.770 51.574,94.671 51.115 C 94.573 50.656,94.357 49.974,94.191 49.598 C 94.026 49.223,93.687 48.054,93.439 47.000 C 92.800 44.291,92.509 43.323,92.162 42.750 C 91.995 42.475,91.767 41.875,91.655 41.417 C 91.543 40.958,91.318 40.316,91.155 39.990 C 90.992 39.664,90.735 38.917,90.583 38.331 C 90.000 36.082,89.634 35.893,88.167 37.085 " stroke="none" fill="#f5991a" fill-rule="evenodd"></path></g></svg>